<svg xmlns="http://www.w3.org/2000/svg" width="38.532" height="38.529" viewBox="0 0 38.532 38.529">
  <g id="allergies" transform="translate(0.264 0.264)">
    <path id="Path_2374" d="M29.5,22.6a1.9,1.9,0,0,0-1.9-1.9,1.9,1.9,0,1,0,0,3.8A1.9,1.9,0,0,0,29.5,22.6Zm-2.7,0a.789.789,0,0,1,.8-.8.86.86,0,0,1,.8.8.8.8,0,0,1-1.6,0Z" transform="translate(-12.223 -9.794)" fill="#fff" stroke="#fff" stroke-width="0.529"/>
    <path id="Path_2375" d="M34.6,27.1a1.9,1.9,0,1,0,1.9-1.9A1.967,1.967,0,0,0,34.6,27.1Zm1.9-.8a.789.789,0,0,1,.8.8.876.876,0,0,1-.8.9.789.789,0,0,1-.8-.8h0a.882.882,0,0,1,.8-.9Z" transform="translate(-11.678 -9.529)" fill="#fff" stroke="#fff" stroke-width="0.529"/>
    <path id="Path_2376" d="M25,32.3a2.7,2.7,0,1,0,2.7-2.7A2.754,2.754,0,0,0,25,32.3Zm2.7-1.6a1.6,1.6,0,1,1-1.6,1.6h0a1.47,1.47,0,0,1,1.6-1.6Z" transform="translate(-12.227 -9.212)" fill="#fff" stroke="#fff" stroke-width="0.529"/>
    <path id="Path_2377" d="M49.177,27.137a2.025,2.025,0,0,0-1.9,1.474H44.853c-.316-1.053-.949-1.579-1.055-2.105-.211-.737.422-1.895-.105-2.947-.422-.947-1.793-1.263-2.215-1.895a2.227,2.227,0,0,1-.316-.737l4.324-4.316a3.783,3.783,0,0,0,1.16.421,2.316,2.316,0,1,0,0-4.632,2.589,2.589,0,0,0-1.688.632,2.367,2.367,0,0,0-.316,2.842l-3.9,3.895a1.95,1.95,0,0,0-1.793-1.158.537.537,0,1,0-.211,1.053h.105c.738.105.949.316,1.266,1.368A3.153,3.153,0,0,0,41.9,23.242c1.055.632,1.16.737.949,2a3.188,3.188,0,0,0,.633,2.737c.738,1.053.738,1.158,0,2.211a3.215,3.215,0,0,0-.738,2.842c.211,1.263.105,1.368-.949,2A3.153,3.153,0,0,0,40,37.242c-.422,1.158-.527,1.263-1.688,1.368a3.148,3.148,0,0,0-2.531,1.263c-.844.947-.949.947-2.109.526a3.374,3.374,0,0,0-1.477-.316c-.949,0-2,.737-2.637.632a2.3,2.3,0,0,1-.949-.737,3.148,3.148,0,0,0-2.531-1.263c-1.266-.105-1.371-.211-1.688-1.368A3.153,3.153,0,0,0,22.6,35.137c-1.055-.632-1.16-.737-.949-2a3.188,3.188,0,0,0-.633-2.737c-.738-1.053-.738-1.158,0-2.211a3.188,3.188,0,0,0,.633-2.737c-.211-1.263-.105-1.368.949-2a4.683,4.683,0,0,0,1.16-.842,3.554,3.554,0,0,0,.633-1.263,3.29,3.29,0,0,1,.527-1.053,2.129,2.129,0,0,1,1.16-.316,3.148,3.148,0,0,0,2.531-1.263c.844-.947.949-.947,2.109-.526a3.366,3.366,0,0,0,2.848,0c1.371-.526,1.266-.316,2.426.842a.446.446,0,0,0,.738-.105.508.508,0,0,0,0-.737l-.316-.316c-1.16-1.263-1.793-1.368-3.375-.737-.211.105-.316.105-.527.211V14.295A2.023,2.023,0,0,0,33.989,12.4a2,2,0,0,0-4.008,0,2.023,2.023,0,0,0,1.477,1.895v3.053a1.784,1.784,0,0,1-.527-.211c-1.582-.526-2.109-.526-3.375.737a1.976,1.976,0,0,1-.738.632,3.754,3.754,0,0,1-1.055.211c-1.16.105-1.793.211-2.32,1.263l-3.164-3.053a2.4,2.4,0,0,0-.316-3.053,2.459,2.459,0,0,0-3.481,3.474,2.411,2.411,0,0,0,3.059.316l3.481,3.474c-.211.737-.316.842-1.16,1.368-1.477.842-1.688,1.474-1.477,3.053a1.79,1.79,0,0,1,0,1.053c-.105.526-.738,1.053-1.055,2.105H16.9A2.025,2.025,0,0,0,15,27.242a2,2,0,1,0,0,4,2.025,2.025,0,0,0,1.9-1.474h2.426c.316,1.053.949,1.579,1.055,2.105.211.737-.422,1.895.105,2.947.422.947,1.793,1.263,2.215,1.895a2.227,2.227,0,0,1,.316.737L20.91,39.558a1.927,1.927,0,0,0-2.32.316,2.1,2.1,0,0,0,0,2.842,1.858,1.858,0,0,0,1.371.632,2,2,0,0,0,2-2,3.068,3.068,0,0,0-.211-.947l1.793-1.789c.844,1.579,2.531,1.053,3.375,1.474.633.316,1.266,1.474,2.32,1.789a5.686,5.686,0,0,0,2.32-.421v3.053A2.023,2.023,0,0,0,30.087,46.4a2,2,0,0,0,4.008,0,2.023,2.023,0,0,0-1.477-1.895V41.453a4.361,4.361,0,0,0,2.32.421c1.055-.211,1.688-1.474,2.32-1.789.844-.421,2.531.211,3.375-1.474l.633.632a.527.527,0,0,0,.844-.632l-.105-.105-.949-.947c.211-.737.316-.842,1.16-1.368,1.477-.842,1.688-1.474,1.477-3.053a2.224,2.224,0,0,1,.422-2,3.887,3.887,0,0,0,.527-1.158h2.426a2.025,2.025,0,0,0,1.9,1.474,2.073,2.073,0,0,0,2-2,1.894,1.894,0,0,0-1.793-2.316ZM46.646,13.558a1.263,1.263,0,1,1,0,2.526,1.2,1.2,0,0,1-.844-.316,1.173,1.173,0,0,1,0-1.684A.869.869,0,0,1,46.646,13.558ZM31.352,12.189a.844.844,0,0,1,1.688,0h0a.831.831,0,0,1-.844.842.775.775,0,0,1-.844-.842ZM17.535,16.4a1.341,1.341,0,1,1,1.9,0A1.332,1.332,0,0,1,17.535,16.4Zm-2.32,13.579a.842.842,0,1,1,0-1.684h0a.842.842,0,1,1,0,1.684Zm5.59,11.789a.894.894,0,0,1-1.266-1.263.776.776,0,0,1,.633-.211.831.831,0,0,1,.844.842C21.121,41.347,21.016,41.558,20.805,41.768ZM33.04,46.084a.844.844,0,1,1-.844-.842h0A.775.775,0,0,1,33.04,46.084ZM49.177,29.979a.831.831,0,0,1-.844-.842.906.906,0,0,1,.844-.842.831.831,0,0,1,.844.842A.775.775,0,0,1,49.177,29.979Z" transform="translate(-13 -10.4)" fill="#fff" stroke="#fff" stroke-width="0.529"/>
    <path id="Path_2378" d="M43,39.2l-.9-.9a.423.423,0,0,0-.7.1.483.483,0,0,0,0,.7l.9.9a2.272,2.272,0,0,0,.3,2.8,2.234,2.234,0,0,0,3.2-.1A2.254,2.254,0,0,0,43,39.2ZM45,42a1.2,1.2,0,1,1,0-1.7A1.15,1.15,0,0,1,45,42Z" transform="translate(-11.028 -8.5)" fill="#fff" stroke="#fff" stroke-width="0.529"/>
  </g>
</svg>
