<svg xmlns="http://www.w3.org/2000/svg" width="38.574" height="38.587" viewBox="0 0 38.574 38.587">
  <g id="cardiology" transform="translate(0.291 0.314)">
    <path id="Path_876" d="M548.171,469c-.428,1.4-.856,2.7-1.284,4.1a21.749,21.749,0,0,0-.856,2.8c-.107.2-.214.4-.428.4a.6.6,0,0,1-.535-.3c-.535-.9-1.07-1.9-1.5-2.8a.6.6,0,0,0-.535-.3H530.523c-.214,0-.428-.2-.321-.4h0a.446.446,0,0,1,.428-.4h12.728a.725.725,0,0,1,.749.4,11.158,11.158,0,0,0,1.07,1.9c0,.1.107.2.214.3.214-.6.321-1.1.535-1.6.642-1.9,1.284-3.8,1.818-5.7v-.1c.107-.2.214-.4.535-.4a.379.379,0,0,1,.428.4,15.115,15.115,0,0,1,.535,2.1c.642,2.2,1.177,4.4,1.818,6.6,0,.1,0,.1.107.2.107,0,.214-.2.214-.3.963-1.8,1.925-3.5,2.888-5.3.214-.5.535-.5.963-.1a16.517,16.517,0,0,1,1.391,1.3.847.847,0,0,0,.535.2h10.7c.214,0,.321.2.321.4s-.107.4-.321.4H556.835a1,1,0,0,1-.749-.3l-.963-.9c-.214-.2-.214-.2-.428.1-.856,1.7-1.818,3.4-2.781,5.1-.107.3-.321.6-.428.9a.6.6,0,0,1-.535.3c-.214,0-.321-.2-.428-.4-.535-1.9-.963-3.7-1.5-5.6-.214-.9-.535-1.9-.749-2.8C548.278,469.1,548.278,469,548.171,469Z" transform="translate(-530.173 -453.442)" fill="#7a8a9e" stroke="#7a8a9e" stroke-width="0.567"/>
    <path id="Path_877" d="M532.8,465.1a7.775,7.775,0,0,1,3.893-6.4,8.467,8.467,0,0,1,10.6,1c.649.6,1.189,1.2,1.73,1.8.216.2.216.2.433,0,.649-.6,1.19-1.3,1.946-1.9a8.53,8.53,0,0,1,11.462-.1,6.507,6.507,0,0,1,1.081,1.3,8.155,8.155,0,0,1,.757,8.8c-.216.4-.433.5-.757.3-.324-.1-.324-.4-.216-.7a7.489,7.489,0,0,0-11.787-8.9c-.757.7-1.514,1.5-2.271,2.2-.433.4-.649.4-.973,0-.649-.7-1.3-1.3-2.055-2a7.479,7.479,0,0,0-10.057-.7,7.615,7.615,0,0,0-1.514,1.7,7.461,7.461,0,0,0-.541,7.5c.216.4.216.7-.108.8s-.541,0-.757-.5A8.192,8.192,0,0,1,532.8,465.1Z" transform="translate(-530.173 -457.288)" fill="#7a8a9e" stroke="#7a8a9e" stroke-width="0.62"/>
    <path id="Path_878" d="M555.984,481.4l5.765-5.5c.111-.1.333-.3.222-.4a.474.474,0,0,0-.443-.5.436.436,0,0,0-.333.1c-.111.1-.222.1-.333.2-3.769,3.6-7.428,7.2-11.2,10.8-.333.3-.333.3-.665,0l-11.2-10.7c-.443-.4-.665-.4-.887-.2s-.222.5.111.8c3.88,3.8,7.871,7.5,11.752,11.3.443.4.665.4,1.109,0Z" transform="translate(-530.173 -449.6)" fill="#7a8a9e" stroke="#7a8a9e" stroke-width="0.62"/>
  </g>
</svg>
