<svg xmlns="http://www.w3.org/2000/svg" width="38.183" height="38.183" viewBox="0 0 38.183 38.183">
  <g id="cosmetology" transform="translate(0.091 0.091)">
    <path id="Shape" d="M2.744,18.6c0,4.663,2.853,5.935,4.227,6.253a19.483,19.483,0,0,0,1.585,3.816A3.469,3.469,0,0,1,5.7,29.941a.636.636,0,0,0,0,1.272c3.8,0,3.91,4.346,3.91,4.451h0a.634.634,0,1,0,1.268,0h0a6.009,6.009,0,0,1,.845-2.968,9.952,9.952,0,0,0,6.34,2.332,9.83,9.83,0,0,0,8.347-4.557,3.391,3.391,0,0,0,1.8-.106,4.21,4.21,0,0,0,4.86,1.908,4.323,4.323,0,0,0,2.959-4.346,2.8,2.8,0,0,0,3.064-1.908,2.88,2.88,0,0,0-1.268-3.392,2.424,2.424,0,0,0-1.057-2.756,2.206,2.206,0,0,0-2.747,3.392,3.924,3.924,0,0,0-.528,1.166,4.368,4.368,0,0,0-1.691-.318c-.951,0-.634.212-.845-.212,1.162-.848,2.219-2.438,2.219-5.3,0-1.7-.317-3.71-1.9-3.922A17.417,17.417,0,0,0,33.915,2.6L33.7,1.43A.67.67,0,0,0,33.069.9H2.956a.67.67,0,0,0-.634.53L2.11,2.6A17.417,17.417,0,0,0,4.752,14.678C3.061,14.89,2.744,16.9,2.744,18.6Zm1.374,0c0-2.014.528-2.544.634-2.544.317-.212.951.106,1.162.212a40.5,40.5,0,0,0,.74,7.1C5.491,22.84,4.118,21.674,4.118,18.6Zm6.128,14.1a4.9,4.9,0,0,0-1.9-2.226,4.347,4.347,0,0,0,1.9-2.226,4.9,4.9,0,0,0,1.9,2.226A6.467,6.467,0,0,0,10.246,32.7Zm7.819.954a8.178,8.178,0,0,1-5.389-1.908,3.8,3.8,0,0,1,2.113-.636.636.636,0,0,0,0-1.272c-3.8,0-3.91-4.346-3.91-4.451h0a.634.634,0,1,0-1.268,0h0A6.018,6.018,0,0,1,9.3,27.291C7.6,23.793,7.182,19.66,7.182,15.738A40.578,40.578,0,0,1,12.888,8a9.985,9.985,0,0,0,5.177,1.378,28.141,28.141,0,0,1,6.657.424,35.205,35.205,0,0,1,4.227,6.147,52.162,52.162,0,0,1-.423,5.829,4.591,4.591,0,0,0-5.706,2.544,4.409,4.409,0,0,0,2.219,5.723,8.107,8.107,0,0,1-6.974,3.6Zm-4.227-26.6a25.964,25.964,0,0,1,4.227-3.18,23.694,23.694,0,0,1,5.389,4.346C19.228,7.683,16.586,8.531,13.839,7.047ZM23.877,26.019a3.223,3.223,0,0,1,6.445,0,3.277,3.277,0,0,1-3.276,3.18,3.184,3.184,0,0,1-3.17-3.18Zm11.94-5.193a.954.954,0,1,1-.951.954h0A.948.948,0,0,1,35.817,20.826Zm-.951,4.24a1.363,1.363,0,0,1,.423-1.06,2.087,2.087,0,0,0,1.9-.424,1.533,1.533,0,0,1,.74,2.12,1.557,1.557,0,0,1-.528.636,1.7,1.7,0,0,1-1.585.106,4.705,4.705,0,0,0-.845-1.166.329.329,0,0,1-.106-.212Zm0,3.18A2.831,2.831,0,0,1,32.752,31a3.008,3.008,0,0,1-3.276-1.166,4.635,4.635,0,0,0,2.113-4.451,2.718,2.718,0,0,1,2.325.742,3.052,3.052,0,0,1,.951,2.12ZM32.013,18.6c0,2.014-.528,3.392-1.691,4.24-.211-.212-.423-.318-.634-.53a39.114,39.114,0,0,0,.528-6.147c.317-.212.74-.424,1.057-.212C31.485,16.056,32.013,16.586,32.013,18.6Zm.528-16.428a16,16,0,0,1-2.747,12.507A34.252,34.252,0,0,0,17.748,2.172Zm-29.057,0h8.77a14.993,14.993,0,0,0-3.8,3.5.658.658,0,0,0,.106.848.677.677,0,0,0,.951-.106h0a16.991,16.991,0,0,1,5.283-4.24,14.946,14.946,0,0,1,1.9.848A34.544,34.544,0,0,0,6.231,14.678,16,16,0,0,1,3.484,2.172Z" transform="translate(-1.9 -0.9)" fill="#7a8a9e" stroke="#fff" stroke-width="0.183"/>
    <path id="Shape-2" d="M10.2,13.8a2.263,2.263,0,0,1,1.8-.1l2.1.7a.539.539,0,1,0,.4-1l-2.1-.7a3.344,3.344,0,0,0-2.6.2.43.43,0,0,0-.2.7c0,.3.3.4.6.2Z" transform="translate(-1.405 -0.218)" fill="#7a8a9e" stroke="#fff" stroke-width="0.183"/>
    <path id="Shape-3" d="M19.9,14.4a14.161,14.161,0,0,0,2.2-.7,2.263,2.263,0,0,1,1.8.1.515.515,0,1,0,.5-.9h0a3.344,3.344,0,0,0-2.6-.2l-2.1.7a.517.517,0,0,0-.3.7.55.55,0,0,0,.5.3Z" transform="translate(-0.763 -0.219)" fill="#7a8a9e" stroke="#fff" stroke-width="0.183"/>
    <path id="Shape-4" d="M14,17a.517.517,0,0,0-.7-.3,3.948,3.948,0,0,1-3.2-.4c-.2-.2-.5-.1-.7,0a1.612,1.612,0,0,1-.7.4.5.5,0,0,0,0,1,2.1,2.1,0,0,0,1.1-.4.349.349,0,0,1,.2.1l-.3.3a.472.472,0,0,0-.5.5c0,.6,1,.9,1.9-.4a5.721,5.721,0,0,0,2.6-.1c.2-.2.4-.5.3-.7Z" transform="translate(-1.482 0.013)" fill="#7a8a9e" stroke="#fff" stroke-width="0.183"/>
    <path id="Shape-5" d="M24,16.2a3.639,3.639,0,0,1-3.2.4.569.569,0,0,0-.7.4.486.486,0,0,0,.3.6,4.574,4.574,0,0,0,2.6.1c.3.4.7,1,1.3,1a.5.5,0,0,0,0-1h0l-.3-.3a.349.349,0,0,0,.2-.1,2.1,2.1,0,0,0,1.1.4.5.5,0,0,0,0-1,1.612,1.612,0,0,1-.7-.4C24.5,16,24.2,16,24,16.2Z" transform="translate(-0.699 0.009)" fill="#7a8a9e" stroke="#fff" stroke-width="0.183"/>
    <path id="Shape-6" d="M15.2,21.8a3.307,3.307,0,0,0,3.8,0,.5.5,0,1,0-.6-.8,2.441,2.441,0,0,1-2.6,0,.483.483,0,0,0-.7.1.428.428,0,0,0,.1.7Z" transform="translate(-1.077 0.259)" fill="#7a8a9e" stroke="#fff" stroke-width="0.183"/>
    <path id="Shape-7" d="M19.5,24.9a3,3,0,0,1-1-.4c-1.4-.6-1.6-.6-2.9,0a4.179,4.179,0,0,1-1,.4c-.4,0-.7.2-.7.6h0c0,.7,1.5,1.7,3.2,1.7s3.2-.9,3.2-1.7a.76.76,0,0,0-.8-.6Zm-4.1.8a4.924,4.924,0,0,1,1.7-.6c.6.2,1.1.4,1.7.6a3.435,3.435,0,0,1-3.4,0Z" transform="translate(-1.089 0.509)" fill="#7a8a9e" stroke="#fff" stroke-width="0.183"/>
    <path id="Shape-8" d="M17.6,28.6H16.5a.5.5,0,0,0,0,1h1.1a.472.472,0,0,0,.5-.5c.1-.2-.2-.5-.5-.5Z" transform="translate(-1.068 0.683)" fill="#7a8a9e" stroke="#fff" stroke-width="0.183"/>
    <circle id="Oval" cx="0.5" cy="0.5" r="0.5" transform="translate(3.7 6.1)" fill="#7a8a9e" stroke="#fff" stroke-width="0.183"/>
    <circle id="Oval-2" cx="0.5" cy="0.5" r="0.5" transform="translate(9.091 19.98)" fill="#7a8a9e" stroke="#fff" stroke-width="0.183"/>
    <circle id="Oval-3" cx="0.5" cy="0.5" r="0.5" transform="translate(9.091 9.303)" fill="#7a8a9e" stroke="#fff" stroke-width="0.183"/>
    <circle id="Oval-4" cx="0.5" cy="0.5" r="0.5" transform="translate(18.5 9.303)" fill="#7a8a9e" stroke="#fff" stroke-width="0.183"/>
    <circle id="Oval-5" cx="0.5" cy="0.5" r="0.5" transform="translate(17.654 19.98)" fill="#7a8a9e" stroke="#fff" stroke-width="0.183"/>
    <path id="Shape-9" d="M37.9,33.2a2.7,2.7,0,1,0-2.7,2.6h0A2.547,2.547,0,0,0,37.9,33.2Zm-4.3,0a1.6,1.6,0,1,1,1.6,1.6,1.58,1.58,0,0,1-1.6-1.6Z" transform="translate(0.1 1.1)" fill="#7a8a9e" stroke="#fff" stroke-width="0.183"/>
    <path id="Shape-10" d="M29.8,33.2a1.6,1.6,0,1,0-1.6,1.6,1.58,1.58,0,0,0,1.6-1.6Zm-2.1,0a.5.5,0,1,1,.5.5h0C27.9,33.8,27.7,33.5,27.7,33.2Z" transform="translate(-0.394 1.1)" fill="#7a8a9e" stroke="#fff" stroke-width="0.183"/>
    <path id="Shape-11" d="M26.2,22.7a2.094,2.094,0,0,0-2.1,2v.1a.5.5,0,0,0,1,0,.987.987,0,0,1,.9-1h.1a.472.472,0,0,0,.5-.5c.2-.3-.1-.6-.4-.6Z" transform="translate(-0.572 0.405)" fill="#7a8a9e" stroke="#fff" stroke-width="0.183"/>
    <path id="Shape-12" d="M4.5,31.7a.472.472,0,0,0-.5.5v1a.472.472,0,0,0,.5.5.472.472,0,0,0,.5-.5v-1C5.1,31.9,4.8,31.7,4.5,31.7Z" transform="translate(-1.9 1.1)" fill="#7a8a9e" stroke="#fff" stroke-width="0.183"/>
    <path id="Shape-13" d="M4,36.4a.472.472,0,0,0,.5.5.472.472,0,0,0,.5-.5v-1a.472.472,0,0,0-.5-.5c-.3,0-.5.1-.5.4Z" transform="translate(-1.9 1.1)" fill="#7a8a9e" stroke="#fff" stroke-width="0.183"/>
    <path id="Shape-14" d="M5.6,34.8H6.7a.5.5,0,0,0,0-1H5.6a.5.5,0,0,0,0,1Z" transform="translate(-1.9 1.1)" fill="#7a8a9e" stroke="#fff" stroke-width="0.183"/>
    <path id="Shape-15" d="M3.5,33.8H2.4a.5.5,0,1,0,0,1H3.5a.5.5,0,0,0,0-1Z" transform="translate(-1.9 1.1)" fill="#7a8a9e" stroke="#fff" stroke-width="0.183"/>
  </g>
</svg>
