<svg id="ct_surgery" xmlns="http://www.w3.org/2000/svg" width="38" height="38" viewBox="0 0 38 38">
  <path id="Path_2522" d="M-2019.235,1424.4a1.035,1.035,0,0,1,.545.9,20.769,20.769,0,0,0,.109,2.6,4.673,4.673,0,0,0,2.4,2.9l3.927,2.1a15.861,15.861,0,0,1,4.363,3.5,9.35,9.35,0,0,1,1.091,1.7h-1.418a.225.225,0,0,1-.218-.2,9.227,9.227,0,0,0-3.709-3.5c-1.309-.8-2.618-1.5-4.036-2.2a7.265,7.265,0,0,1-3.163-2.7,1.4,1.4,0,0,1-.327.4,7.737,7.737,0,0,1-2.727,2.1c-.545.3-1.2.6-1.854.9a20.87,20.87,0,0,0-5.236,3.7l-.982,1.2c-.109.2-.218.3-.437.2h-.763c-.436,0-.436,0-.218-.3a7.559,7.559,0,0,1,1.309-1.9,20.977,20.977,0,0,1,4.145-3.2c1.091-.6,2.073-1.1,3.163-1.7a9.052,9.052,0,0,0,1.636-1.1,3.8,3.8,0,0,0,1.418-2.9v-1.8a.747.747,0,0,1,.545-.8Z" transform="translate(2038.8 -1424.3)" fill="#7a8a9e"/>
  <path id="Path_2523" d="M-2019.563,1460.6a.887.887,0,0,1-.545-.8v-1.3a3.158,3.158,0,0,0-1.636-2.8c-1.308-.8-2.726-1.5-4.034-2.2a21.766,21.766,0,0,1-4.689-3.4,8.209,8.209,0,0,1-1.527-2.2c-.109-.3-.109-.3.218-.4a1.358,1.358,0,0,1,1.527.8,12.387,12.387,0,0,0,3.162,3c1.635,1.1,3.38,1.9,5.125,2.9a6.466,6.466,0,0,1,2.4,2,11.776,11.776,0,0,1,4.362-3,26.052,26.052,0,0,0,5.016-3.2,6.646,6.646,0,0,0,1.854-2.3c0-.2.218-.3.436-.2h.763c.436,0,.436,0,.327.4a8.762,8.762,0,0,1-2.508,3.1,27.167,27.167,0,0,1-6.215,3.8,10.362,10.362,0,0,0-1.963,1.2,2.9,2.9,0,0,0-1.2,2.3v1.5a.747.747,0,0,1-.545.8Z" transform="translate(2038.8 -1422.6)" fill="#7a8a9e"/>
  <path id="Path_2524" d="M-2023.9,1435.8a9.739,9.739,0,0,0-2.4,1.5,3.433,3.433,0,0,0-1.2,3v.1c.1,0,.1-.1.2-.1a.627.627,0,0,1,.8-.2h0a.605.605,0,0,1,.1.8v.1a3.7,3.7,0,0,0-.6,2.1,4.588,4.588,0,0,0,1.5,3.1c1.3,1.3,2.5,2.6,3.9,3.8a7.1,7.1,0,0,0,1.4,1,1.362,1.362,0,0,0,1.5,0,6.506,6.506,0,0,0,2.6-2.6,7.221,7.221,0,0,0,1.1-4.1,5.729,5.729,0,0,0-.4-1.4.745.745,0,0,1,.1-.9,3.379,3.379,0,0,0,.9-1.9,3.077,3.077,0,0,0-.6-1.9,4.87,4.87,0,0,1,1.2-.1c.2,0,.2.2.2.3a3.689,3.689,0,0,1-.5,3.9.616.616,0,0,0-.1.7,5.814,5.814,0,0,1-.1,4.3,9.321,9.321,0,0,1-3.3,4.5,2.852,2.852,0,0,1-3.5,0,16.684,16.684,0,0,1-2.8-2.5l-2-2a5.684,5.684,0,0,1-2-3.6,3.788,3.788,0,0,1,0-1.5.368.368,0,0,0-.1-.3,3.93,3.93,0,0,1,.6-4.8,8.066,8.066,0,0,1,2.4-1.7c.2-.1.3,0,.5.1C-2024.4,1435.4-2024.1,1435.6-2023.9,1435.8Z" transform="translate(2039.844 -1423.324)" fill="#7a8a9e"/>
  <path id="Path_2525" d="M-2032.3,1446h-1.8c-.7,0-1.1-.1-1.4-.8-.1-.4,0-.7-.2-1.1a1.554,1.554,0,0,0-.8-.6h-2c-.2,0-.3,0-.3-.3v-.7c0-.3.1-.4.4-.3h1.4c.7,0,1.1-.2,1.4-1.2a4.889,4.889,0,0,0,.3-.7c.2-.7.6-.8,1.3-.7,1.2.1,2.4,0,3.6,0,.5,0,.9.1.9.6s-.3.7-.9.7h-3.1c-.4,0-.8.3-.8.6s.4.6.8.6h3c.6,0,1,.2,1,.7s-.4.6-1,.6h-3a.849.849,0,0,0-.8.7c0,.3.4.6.8.6h3c.6,0,1,.2.9.7,0,.4-.3.5-.8.5a12.722,12.722,0,0,1-1.9.1Z" transform="translate(2038.8 -1423.431)" fill="#7a8a9e"/>
  <path id="Path_2526" d="M-2009.4,1446.2h1.8c.7,0,1.1-.1,1.4-.8.1-.4,0-.7.2-1.1a1.554,1.554,0,0,1,.8-.6h2c.2,0,.3,0,.3-.3v-.7c0-.3-.1-.4-.4-.3h-1.4c-.7,0-1.1-.2-1.4-1.2a4.889,4.889,0,0,1-.3-.7c-.2-.7-.6-.8-1.3-.7-1.2.1-2.4,0-3.6,0-.5,0-.9.1-.9.6s.3.7.9.7h3.1c.4,0,.8.3.8.6s-.4.6-.8.6h-3c-.6,0-1,.2-1,.7s.4.6,1,.6h3a.849.849,0,0,1,.8.7c0,.3-.4.6-.8.6h-3c-.6,0-1,.2-.9.7,0,.4.3.5.8.5a12.077,12.077,0,0,0,1.9.1Z" transform="translate(2040.9 -1423.42)" fill="#7a8a9e"/>
  <path id="Path_2527" d="M-2011.9,1437.4a16.416,16.416,0,0,0-2.3-.2,7.126,7.126,0,0,0-3.8,1.2c-.1.1-.2.2-.2.3a14.772,14.772,0,0,1-.1,2.1c0,.2.1.3.2.3.4.2.8.5,1.2.7.2.1.5.3.3.6s-.4.2-.6,0a.31.31,0,0,1-.2-.1,3.788,3.788,0,0,1,0,1.5c0,.2-.1.5-.1.7a4.109,4.109,0,0,0,0,2.2,3.813,3.813,0,0,1,.1,1.5v.1c-.1.2-.2.4-.4.4s-.4-.2-.3-.4v-.1a3.211,3.211,0,0,0-.1-1.4,13.021,13.021,0,0,0-.8,1.7c-.1.2-.2.3-.2.5-.1.2-.3.4-.5.2s-.2-.3-.1-.6c.4-.8.7-1.5,1.1-2.3l.3-.9a8.8,8.8,0,0,1-1,.6,10.082,10.082,0,0,1-1.5.7.4.4,0,0,1-.6-.2c-.1-.3.1-.4.3-.5a7.681,7.681,0,0,0,2.5-1.4,2.046,2.046,0,0,0,.4-2.8l-.3-.3a1.136,1.136,0,0,1-.3-.8,9.665,9.665,0,0,0,.1-2.4c0-.2.1-.4.2-.4a8.761,8.761,0,0,1,5.9-1.5C-2012.3,1436.6-2012.2,1437.1-2011.9,1437.4Z" transform="translate(2040.181 -1423.423)" fill="#7a8a9e"/>
  <path id="Path_2528" d="M-2025.2,1434.3a4.343,4.343,0,0,0,.7-.4c.1,0,.2-.1.2,0a10.114,10.114,0,0,1,2.8,2.2,3.891,3.891,0,0,1,.7,2.3v1.6a1.063,1.063,0,0,1-.9,1h0a4.869,4.869,0,0,0-1.2.1.3.3,0,0,1-.4-.2h0c0-.2.1-.4.3-.4h0a5.021,5.021,0,0,1,1.2-.2c.2,0,.3,0,.3-.2a5.078,5.078,0,0,0-.5-3.2,5.74,5.74,0,0,0-2.2-1.9A2.285,2.285,0,0,0-2025.2,1434.3Z" transform="translate(2039.707 -1423.74)" fill="#7a8a9e"/>
  <path id="Path_2529" d="M-2022.9,1433h0c.7-.5.7-.5,1.4-.1a7.489,7.489,0,0,1,2.4,2.6c.1.2.2.1.4.1a9.978,9.978,0,0,1,2.9-1,.663.663,0,0,1,.7.2c.2.2.4.3.6.5-.4,0-.9.1-1.3.1a9.771,9.771,0,0,0-3,1.1c-.5.3-.6.2-.8-.3a5.5,5.5,0,0,0-2.4-2.6A7.014,7.014,0,0,0-2022.9,1433Z" transform="translate(2040.014 -1423.862)" fill="#7a8a9e"/>
</svg>
