<svg id="endocrinology" xmlns="http://www.w3.org/2000/svg" width="38" height="38" viewBox="0 0 38 38">
  <g id="Group_1594">
    <path id="Path_1704" d="M23.956,34.641v3.386A1.127,1.127,0,0,1,23,39.085h0a.95.95,0,0,1-.957-.952V34.112c0-.423-.106-.529-.425-.635a7.054,7.054,0,0,0-2.976,0,.485.485,0,0,0-.425.529h0v3.915a.949.949,0,0,1-.744,1.058,1.006,1.006,0,0,1-1.169-.635v-3.7a11.652,11.652,0,0,1-1.807.529,17.052,17.052,0,0,1-4.039-.106,12.339,12.339,0,0,1-4.676-1.27A7.812,7.812,0,0,1,1,26.6a22.62,22.62,0,0,1,1.594-8.464c.531-1.481,1.063-2.963,1.7-4.338a26.253,26.253,0,0,0,.957-3.915,12.747,12.747,0,0,1,.531-1.9,3.132,3.132,0,0,1,4.039-2.01,2.753,2.753,0,0,1,1.169.741,5.444,5.444,0,0,1,1.7,2.645,19.768,19.768,0,0,1,1.063,4.973,65.6,65.6,0,0,1,.425,7.83.549.549,0,0,0,.213.423,8.489,8.489,0,0,0,1.7.846V1.947A.9.9,0,0,1,17.155,1.1a.912.912,0,0,1,.85.846V23.426c0,.423.106.529.531.635a12.068,12.068,0,0,0,2.763,0c.425,0,.531-.212.531-.529V2.053a.957.957,0,0,1,1.913,0V23c0,.529,0,.529.425.317,1.382-.635,1.382-.635,1.382-2.116a50.266,50.266,0,0,1,.638-8.041A16.534,16.534,0,0,1,27.57,8.19a3.86,3.86,0,0,1,2.87-2.222,2.627,2.627,0,0,1,3.295,1.693,14.57,14.57,0,0,1,.85,2.857,20.877,20.877,0,0,0,1.594,4.973,40.984,40.984,0,0,1,2.444,7.195,13.929,13.929,0,0,1,.106,5.925,7.832,7.832,0,0,1-5.314,5.713,18.127,18.127,0,0,1-7.865.952A16.593,16.593,0,0,1,23.956,34.641ZM14.5,24.7c-.106.741-.425,1.058-1.063,1.058-.531,0-.85-.423-.85-1.164v-1.9a69.443,69.443,0,0,0-.744-10.475,10.108,10.108,0,0,0-1.275-3.386A2.479,2.479,0,0,0,9.29,7.767a.982.982,0,0,0-1.382.423A.1.1,0,0,1,7.8,8.3a9.282,9.282,0,0,0-.531,1.587A24.658,24.658,0,0,1,6.314,13.9a29.258,29.258,0,0,0-1.063,2.751,27.066,27.066,0,0,0-2.338,8.57c-.213,3.6,1.169,6.242,4.889,7.406a17.706,17.706,0,0,0,5.208.741,6.26,6.26,0,0,0,2.444-.423c.425-.212.957-.423,1.488-.741a7.255,7.255,0,0,1,4.464-.635,8.22,8.22,0,0,1,2.657,1.058,5.109,5.109,0,0,0,2.126.741,17.406,17.406,0,0,0,6.589-.846,6.343,6.343,0,0,0,4.357-4.444,10.194,10.194,0,0,0,.106-4.021,31.832,31.832,0,0,0-2.019-6.877,24.641,24.641,0,0,1-2.232-6.666A7,7,0,0,0,32.353,8.4a.917.917,0,0,0-1.169-.635h0a2.537,2.537,0,0,0-1.169.635,3.959,3.959,0,0,0-.744,1.27,13.673,13.673,0,0,0-.85,3.6,77.288,77.288,0,0,0-.531,8.57V24.7a.934.934,0,0,1-.85.952h0a.867.867,0,0,1-.957-.846h0v-.212A12.779,12.779,0,0,1,14.5,24.7Z" transform="translate(-1 -1.085)" fill="#7a8a9e"/>
    <path id="Path_1705" d="M8.3,10.9a.9.9,0,0,1,.9-.9h0a.9.9,0,0,1,0,1.8h0a.9.9,0,0,1-.9-.9Z" transform="translate(-0.517 -0.54)" fill="#7a8a9e"/>
    <path id="Path_1706" d="M29.7,10.9a.9.9,0,0,1-.9.9h0a.9.9,0,0,1-.9-.9,1.063,1.063,0,0,1,.9-1h.1a1.077,1.077,0,0,1,.8,1Z" transform="translate(0.779 -0.544)" fill="#7a8a9e"/>
    <path id="Path_1707" d="M5.6,19a.9.9,0,0,1-.9-.9h0a.9.9,0,0,1,1.8,0h0a.9.9,0,0,1-.9.9Z" transform="translate(-1 -0.1)" fill="#7a8a9e"/>
    <path id="Path_1708" d="M32.4,19a.9.9,0,0,1-.9-.9h0a.951.951,0,1,1,1.9-.1v.1a1.158,1.158,0,0,1-1,.9Z" transform="translate(1.245 -0.103)" fill="#7a8a9e"/>
    <path id="Path_1709" d="M5.6,24.4a.9.9,0,1,1,.9-.9v.1A.882.882,0,0,1,5.6,24.4Z" transform="translate(-1 0.23)" fill="#7a8a9e"/>
    <path id="Path_1710" d="M32.3,24.4a.9.9,0,1,1,.9-.9h0c.1.5-.4.9-.9.9Z" transform="translate(1.245 0.23)" fill="#7a8a9e"/>
    <path id="Path_1711" d="M16.3,26.2a.9.9,0,1,1-.9.9h0A.9.9,0,0,1,16.3,26.2Z" transform="translate(-0.048 0.45)" fill="#7a8a9e"/>
    <path id="Path_1712" d="M22.6,27.1a.9.9,0,1,1-.9-.9h0A1.055,1.055,0,0,1,22.6,27.1Z" transform="translate(0.309 0.45)" fill="#7a8a9e"/>
    <path id="Path_1713" d="M8.3,14.5a.9.9,0,1,1-.9-.9h0a.9.9,0,0,1,.9.9Z" transform="translate(-0.636 -0.32)" fill="#7a8a9e"/>
    <path id="Path_1714" d="M30.6,13.6a.9.9,0,0,1,0,1.8.923.923,0,0,1-.9-1v-.1a.887.887,0,0,1,.9-.7Z" transform="translate(1.245 -0.32)" fill="#7a8a9e"/>
    <path id="Path_1715" d="M8.3,19.9a.817.817,0,0,1,.8-.9h.1a.9.9,0,0,1,.9.9h0a.9.9,0,0,1-1.8,0Z" transform="translate(-0.517 0.01)" fill="#7a8a9e"/>
    <path id="Path_1716" d="M29.7,19.9a.9.9,0,1,1-.9-.9h0a.839.839,0,0,1,.9.9Z" transform="translate(0.779 0.01)" fill="#7a8a9e"/>
    <path id="Path_1717" d="M8.3,25.3a.817.817,0,0,1,.8-.9h.1a.9.9,0,1,1-.9.9Z" transform="translate(-0.517 0.34)" fill="#7a8a9e"/>
    <path id="Path_1718" d="M29.7,25.3a.9.9,0,0,1-.9.9h0a.9.9,0,0,1,0-1.8h0a.839.839,0,0,1,.9.9Z" transform="translate(0.779 0.34)" fill="#7a8a9e"/>
    <path id="Path_1719" d="M8.3,28.9a.817.817,0,0,1-.8.9H7.4a.9.9,0,1,1,.9-.9Z" transform="translate(-0.636 0.56)" fill="#7a8a9e"/>
    <path id="Path_1720" d="M12.7,29.8a.9.9,0,0,1-.9-.9h0a.9.9,0,0,1,1.8,0h0a.839.839,0,0,1-.9.9Z" transform="translate(-0.286 0.56)" fill="#7a8a9e"/>
    <path id="Path_1721" d="M25.2,29.8a.817.817,0,0,1-.9-.8v-.1a.9.9,0,0,1,.9-.9h0a.923.923,0,0,1,.9,1A.882.882,0,0,1,25.2,29.8Z" transform="translate(0.541 0.56)" fill="#7a8a9e"/>
    <path id="Path_1722" d="M30.6,29.8a.817.817,0,0,1-.9-.8v-.1a.9.9,0,0,1,.9-.9h0a.923.923,0,0,1,.9,1A.882.882,0,0,1,30.6,29.8Z" transform="translate(1.245 0.56)" fill="#7a8a9e"/>
  </g>
</svg>
