<svg xmlns="http://www.w3.org/2000/svg" width="38.631" height="38.632" viewBox="0 0 38.631 38.632">
  <g id="gastroenterology" transform="translate(0.315 0.316)">
    <g id="Group_1414">
      <path id="Path_1067" d="M38.6,15.4c-.424,7.975-3.076,14.692-9.865,18.889C24.81,36.7,20.461,38.065,15.794,36.91a8.532,8.532,0,0,1-6.046-5.037.838.838,0,0,0-1.273-.525C6.034,32.4,5.186,34.5,4.762,37.015c0,.315-.106.735-.106,1.049s-.212.42-.53.42-.424-.1-.424-.525a7.78,7.78,0,0,1,5.41-7.975c.743-.21,1.167,0,1.485.84a7.694,7.694,0,0,0,7.319,5.247c8.7.525,16.548-5.457,18.776-14.377A21.234,21.234,0,0,0,36.8,9.626a9.7,9.7,0,0,0-7.956-7.241A9.2,9.2,0,0,0,19.4,6.373a2.111,2.111,0,0,1-2.015.944,11.087,11.087,0,0,1-4.561-.944A5.394,5.394,0,0,1,9.853,1.23c0-.315-.106-.735.424-.63a.608.608,0,0,1,.636.63h0c.318,3.253,1.8,4.617,4.88,4.932A3.855,3.855,0,0,0,19.506,4.9,10.035,10.035,0,0,1,30.856,1.86c4.561,1.469,6.577,5.037,7.531,9.655C38.494,12.774,38.6,14.138,38.6,15.4Z" transform="translate(-0.6 -0.584)" fill="#7a8a9e" stroke="#7a8a9e" stroke-width="0.631"/>
      <path id="Path_1068" d="M22.1,13.821a16.1,16.1,0,0,1-.5,3.043c-1,3.777-2.9,5.561-6.4,5.771a4.237,4.237,0,0,0-2.5.839,2.593,2.593,0,0,0-1.1,1.889c0,.944-.5,1.154-1.2,1.364-4.6.839-8.1,4.932-8.7,10.073-.1.42-.1.944-.2,1.364,0,.315-.2.42-.5.42s-.4-.21-.4-.525a9.392,9.392,0,0,1,.5-2.833c1.3-5.037,4-8.394,8.7-9.549a1.088,1.088,0,0,0,.9-.944,3.9,3.9,0,0,1,3.2-3.043,8.362,8.362,0,0,1,1.6-.21,5.048,5.048,0,0,0,4.7-3.673,11.7,11.7,0,0,0,.9-4.512,2.888,2.888,0,0,0-2.3-3.358,1.653,1.653,0,0,0-1,.1,13.117,13.117,0,0,1-5.7-.315A9.429,9.429,0,0,1,6.2,1.335C6.2.915,6.2.6,6.6.6s.5.21.5.525c.7,6.506,5.3,8.5,10.4,7.765a2.91,2.91,0,0,1,2.1.1C21.3,9.729,22.2,11.2,22.1,13.821Z" transform="translate(-0.6 -0.584)" fill="#7a8a9e" stroke="#7a8a9e" stroke-width="0.631"/>
      <path id="Path_1069" d="M25.7,18.9a1.988,1.988,0,0,1-1.9,2h0a2.014,2.014,0,0,1-1.9-2.1h0a1.988,1.988,0,0,1,1.9-2h0a2.011,2.011,0,0,1,1.9,2.1Zm-.9-.1a.871.871,0,0,0-1-.9h0a.9.9,0,0,0-.9.9V19a.882.882,0,0,0,.8.9h.1a1.09,1.09,0,0,0,1-1.1Z" transform="translate(0.723 0.317)" fill="#7a8a9e" stroke="#7a8a9e" stroke-width="0.631"/>
      <path id="Path_1070" d="M17.4,32.6a1.988,1.988,0,0,1-1.9-2,1.923,1.923,0,0,1,1.9-2h0a1.988,1.988,0,0,1,1.9,2v.1A1.9,1.9,0,0,1,17.4,32.6Zm1-2a.987.987,0,0,0-.9-1h0a.9.9,0,0,0-.9.9v.1a.974.974,0,0,0,.8,1h.2a.915.915,0,0,0,.8-1Z" transform="translate(0.325 1.2)" fill="#7a8a9e" stroke="#7a8a9e" stroke-width="0.631"/>
      <path id="Path_1071" d="M28.2,26a2.157,2.157,0,0,1-1.9-2.1,2.006,2.006,0,0,1,2-2,1.844,1.844,0,0,1,1.8,2V24A1.866,1.866,0,0,1,28.2,26Zm1-2c-.1-.6-.4-1-1-1a.9.9,0,0,0-.9.9v.2a.974.974,0,0,0,.8,1h.2c.6-.1.8-.5.9-1.1Z" transform="translate(0.997 0.6)" fill="#7a8a9e" stroke="#7a8a9e" stroke-width="0.631"/>
      <path id="Path_1072" d="M32.2,18.2a1.56,1.56,0,1,1-3.1-.3,1.556,1.556,0,0,1,1.7-1.4h0A1.556,1.556,0,0,1,32.2,18.2Zm-1.6.5c.3,0,.6-.1.6-.5a.569.569,0,0,0-.4-.7h-.1a.634.634,0,0,0-.6.5v.2a.472.472,0,0,0,.5.5Z" transform="translate(1.4 0.276)" fill="#7a8a9e" stroke="#7a8a9e" stroke-width="0.631"/>
      <path id="Path_1073" d="M14.9,23.1a1.58,1.58,0,0,1,1.6,1.6h0a1.58,1.58,0,0,1-1.6,1.6,1.6,1.6,0,0,1,0-3.2Zm0,1c-.4,0-.6.2-.6.7a.56.56,0,0,0,.5.6h0a.634.634,0,0,0,.6-.5v-.1a.505.505,0,0,0-.5-.7Z" transform="translate(0.178 0.633)" fill="#7a8a9e" stroke="#7a8a9e" stroke-width="0.631"/>
      <path id="Path_1074" d="M23.2,24.7a1.561,1.561,0,0,1-1.5,1.6h0a1.586,1.586,0,0,1-1.5-1.7,1.415,1.415,0,0,1,1.5-1.5,1.561,1.561,0,0,1,1.5,1.6Zm-1.5.6c.3-.1.6-.3.5-.7a.56.56,0,0,0-.6-.5h0a.56.56,0,0,0-.5.6v.1a.56.56,0,0,0,.6.5Z" transform="translate(0.588 0.632)" fill="#7a8a9e" stroke="#7a8a9e" stroke-width="0.631"/>
      <path id="Path_1075" d="M27.3,29.1a1.58,1.58,0,0,1-1.6,1.6h0A1.586,1.586,0,0,1,24.2,29h0a1.561,1.561,0,0,1,1.5-1.6A1.605,1.605,0,0,1,27.3,29.1Zm-1,0a.666.666,0,0,0-.5-.7.5.5,0,0,0-.6.5v.2a.56.56,0,0,0,.5.6h0a.576.576,0,0,0,.6-.6Z" transform="translate(0.835 0.869)" fill="#7a8a9e" stroke="#7a8a9e" stroke-width="0.631"/>
    </g>
  </g>
</svg>
