<svg xmlns="http://www.w3.org/2000/svg" width="38.883" height="38.885" viewBox="0 0 38.883 38.885">
  <g id="gastro_medical" transform="translate(0.383 0.38)">
    <g id="Group_2907" transform="translate(2.312 0.414)">
      <path id="Path_2565" d="M21.8.4h-.4a9.4,9.4,0,0,0-2,3.5A4.875,4.875,0,0,1,19,5a3.238,3.238,0,0,1-2,1.8.43.43,0,0,0-.4.4,3.768,3.768,0,0,1-2.3,2.6,6.241,6.241,0,0,1-3.6.5c-.3,0-.3,0-.4.3a6.72,6.72,0,0,1-1.3,3,7.224,7.224,0,0,1-4.9,2.6c-.7.1-1.1.2-1.3.8a2.651,2.651,0,0,1-.5.6A7.821,7.821,0,0,1-.3,19.3a.6.6,0,0,1,.1.4.367.367,0,0,1,.3-.1,6.86,6.86,0,0,0,3.3-2.8c.1-.2.2-.2.4-.2a9.876,9.876,0,0,0,3.7-1.1A6.922,6.922,0,0,0,10.6,11c.1-.3.1-.4.4-.3a4.421,4.421,0,0,0,2-.2,4.517,4.517,0,0,0,3.8-3.2c.1-.2.2-.3.4-.3a2.55,2.55,0,0,0,1.2-.8,5.423,5.423,0,0,0,1.5-2.9c.1-.1.1-.3.2-.5.5-.8,1.1-1.6,1.7-2.4h0Z" transform="translate(0.3 -0.4)" fill="#7a8a9e" stroke="#7a8a9e" stroke-width="0.766"/>
    </g>
    <g id="gastro_medical-2" transform="translate(10.798 8.226)">
      <path id="Path_2566" d="M24.4,5.7a10.706,10.706,0,0,0-2.2-5,4.713,4.713,0,0,0-5.1-1.9,5.8,5.8,0,0,0-3,1.8c-.2.2-.2.1-.4,0L12.5-1.2a6.726,6.726,0,0,1-.7,1.1,23.481,23.481,0,0,0,1.9,2.5.188.188,0,0,0,.3,0,15.38,15.38,0,0,1,1.2-1.3A3.947,3.947,0,0,1,17.7-.1a4.247,4.247,0,0,1,3.9,1.7,10.734,10.734,0,0,1,2,6.3,6.6,6.6,0,0,1-.1,1.4,9.146,9.146,0,0,1-2.3,5.2,12.049,12.049,0,0,1-9.7,4.1,4.193,4.193,0,0,1-1.6-.4,12.453,12.453,0,0,1-2.2-1.6,13.676,13.676,0,0,0-2.4-1.8,2.435,2.435,0,0,0-3.1.6,3.293,3.293,0,0,0-.7,1.3,38.731,38.731,0,0,0-.2,9,16.187,16.187,0,0,0,.6,1.7c0,.1.1.2.2.1a3.039,3.039,0,0,1,.7-.5c.1-.1.1-.1,0-.2-.5-.9-.8-7-.7-8.1a4.1,4.1,0,0,1,.7-2.2.1.1,0,0,1,.1-.1A1.572,1.572,0,0,1,5,16a6.42,6.42,0,0,1,1.3,1,21.1,21.1,0,0,0,2.3,1.9,5.048,5.048,0,0,0,2.3.9,11.451,11.451,0,0,0,3.2-.1A14.921,14.921,0,0,0,21,16.6a10.31,10.31,0,0,0,3.7-6.9A24.146,24.146,0,0,0,24.4,5.7Z" transform="translate(2.502 1.358)" fill="#7a8a9e" stroke="#7a8a9e" stroke-width="1"/>
      <path id="Path_2567" d="M10.9,2.6a6.07,6.07,0,0,0-.7-1,5.5,5.5,0,0,1-.9.7c.6.8,1.2,1.7,1.8,2.4a.44.44,0,0,1,.1.5c-.1.7-.1,1.4-.2,2.1a12.816,12.816,0,0,1-.5,2.7.367.367,0,0,1-.1.3,1.2,1.2,0,0,1-1.6.6A15.95,15.95,0,0,0,5,10.2a7.34,7.34,0,0,0-3.3.4,5.942,5.942,0,0,0-3.6,4.1c-.7,2.1-.9,7.8,0,11.4A6.5,6.5,0,0,0-.8,28.3c.1.1.2.2.3,0,.2-.2.4-.3.6-.5.1-.1.1-.1,0-.2a2.177,2.177,0,0,1-.5-.8c-.6-1.3-.9-7.7-.9-9.2.1-.6.2-1.1.3-1.7A5.754,5.754,0,0,1,.6,12.7a5.369,5.369,0,0,1,4.7-1.4,16.539,16.539,0,0,1,3.2.7,2.293,2.293,0,0,0,2.9-1.3c.1-.2.2-.3.2-.5a8.676,8.676,0,0,0,.5-2.8,24.77,24.77,0,0,1,.3-2.7.367.367,0,0,0-.1-.3C11.9,3.9,11.4,3.3,10.9,2.6Z" transform="translate(2.502 1.358)" fill="#7a8a9e" stroke="#7a8a9e" stroke-width="1"/>
    </g>
    <g id="Group_2906">
      <path id="Path_2564" d="M.5,11.1A12.751,12.751,0,0,1,.6,9.2,7.357,7.357,0,0,1,6.2,2.5a12.248,12.248,0,0,1,6-.6,4.951,4.951,0,0,1,1.3.4,1.1,1.1,0,0,0,.8,0,8.538,8.538,0,0,1,4.2-.1,3.929,3.929,0,0,0,2.4-.3A17.522,17.522,0,0,1,26,.5a2.879,2.879,0,0,1,1.3.1.838.838,0,0,1,.6.8c0,.1-.1.2-.1.3a3.592,3.592,0,0,1-.7,1,13.089,13.089,0,0,0-1.9,2.7,5.782,5.782,0,0,0-.5,1.4,5.19,5.19,0,0,1-2.3,3.3A8.635,8.635,0,0,0,21,11.4a4.889,4.889,0,0,1-4.6,2.1,4.253,4.253,0,0,1-1.1-.2c-.3-.1-.3,0-.4.3a6.226,6.226,0,0,1-3.5,4.5,8.756,8.756,0,0,1-3.2.7c-.2,0-.3-.1-.4.2a5.342,5.342,0,0,1-3.2,2.7c-.2.1-.4.1-.6.2H3.7a3.048,3.048,0,0,1-.8-1.6c0-.2-.1-.4-.1-.6-.4-1.6-.9-3.1-1.3-4.7-.3-.9-.5-1.9-.8-2.8ZM8.6,2.4A8.648,8.648,0,0,0,6.3,3,6.961,6.961,0,0,0,2.2,5.8a9.206,9.206,0,0,0-1.1,6.5,31.129,31.129,0,0,0,1.1,4.1c.4,1.4.8,2.8,1.1,4.2a.908.908,0,0,0,.3.7c.1.2.2.2.4.2H4a6.5,6.5,0,0,0,2.2-1.1,2.555,2.555,0,0,0,1.2-1.5c.1-.5.4-.5.8-.5a7.834,7.834,0,0,0,2.6-.4,5.881,5.881,0,0,0,3.9-4.8c.1-.3.1-.4.4-.3a6.478,6.478,0,0,0,2,.2,4.347,4.347,0,0,0,4.1-2.7c0-.2.2-.3.4-.3a3.7,3.7,0,0,0,1.1-.5,4.589,4.589,0,0,0,1.7-2.8A4.714,4.714,0,0,1,25,5.3a13.089,13.089,0,0,1,1.9-2.7l.6-.9c.2-.4.1-.5-.3-.6a2.054,2.054,0,0,0-1.1,0,16.259,16.259,0,0,0-4.9,1.4,4.541,4.541,0,0,1-2.8.3,6.69,6.69,0,0,0-4.2.2h-.3a8.961,8.961,0,0,0-5.3-.6Z" transform="translate(-0.5 -0.459)" fill="#7a8a9e" stroke="#7a8a9e" stroke-width="0.766"/>
    </g>
  </g>
</svg>
