<svg xmlns="http://www.w3.org/2000/svg" width="38.441" height="38.424" viewBox="0 0 38.441 38.424">
  <g id="Group_441" data-name="Group 441" transform="translate(0.229 0.212)">
    <g id="ent" transform="translate(12.01 4.843)">
      <g id="ent-3">
        <path id="Path_3112" d="M694.4,371.5a4.185,4.185,0,0,0-1.8-1.1,5.918,5.918,0,0,0-1.9-.1,4.307,4.307,0,0,0-2.2.9,4.487,4.487,0,0,0-1.1,1.3,4.18,4.18,0,0,0-.4,1v.1l-.1.1-.1-.1a3.048,3.048,0,0,0-1.9-2.1,2.622,2.622,0,0,0-1.5-.2h-2.6a2.332,2.332,0,0,1-2.1-1.3,1.854,1.854,0,0,1-.2-.7v-.9a1.873,1.873,0,0,0-.8-1.4,2.439,2.439,0,0,0-2.6,0,5.725,5.725,0,0,0-1.5,1.6,4.551,4.551,0,0,0-.8,1.9,3.285,3.285,0,0,0,.1,1.7,3.551,3.551,0,0,0,.4.9.31.31,0,0,1,.1.2v1.2c0,.1,0,.1-.1.2a2.41,2.41,0,0,0-1,1c-.1.1-.1.3-.2.4l-.3.6c-.2.3-.4.7-.6,1l-1.3,2a1.446,1.446,0,0,0-.2.7c.2.1.2.3.1.5l-.1.1v.2c.1,0,.1.1.2.2h.4a.367.367,0,0,1,.3-.1c.1,0,.1,0,.2.1h.1a.367.367,0,0,1,.3.1h9.1c.8.4,1.6.7,2.4,1.1.1,0,.2.1.3.2s.1.3-.1.5a.44.44,0,0,1-.5.1c-.4-.2-.8-.4-1.3-.6l-1.5-.8h-3a2.452,2.452,0,0,0-2.1,1.5,2.486,2.486,0,0,0-.1.8v1.5a2.333,2.333,0,0,0,2.4,2.2h1.7c.1,0,.1-.1.2-.1h.2a.987.987,0,0,0,.9-1,.519.519,0,0,0-.2-.4,1.012,1.012,0,0,0-.7-.4h-1.4c-.6,0-1.1-.3-1.1-.9v-.8a1.077,1.077,0,0,1,1-.8h1.7a7.973,7.973,0,0,0,1.6.8,9.252,9.252,0,0,0,1,.5,2.365,2.365,0,0,1,1.2,1.4,2,2,0,0,1-.2,1.5c-.5,1-1,2.1-1.6,3.1-.1.2-.2.3-.2.5v.1h.5l.3-.6,1.2-2.4a3.553,3.553,0,0,0,.4-.9,2.563,2.563,0,0,0-1.1-2.9,8.27,8.27,0,0,0-1.3-.7c-.6-.3-1.1-.6-1.7-.9-.1,0-.1-.1-.2-.1h-1.6a1.539,1.539,0,0,0-1.5,1,.6.6,0,0,0-.1.4c0,.1,0,.1-.1.1h-.6a.1.1,0,0,1-.1-.1,3.084,3.084,0,0,1,.1-1,1.874,1.874,0,0,1,1.8-1.2h2.7c.9.5,1.7.9,2.6,1.3a1.262,1.262,0,0,0,1.2-.1l.3-.3V383a.955.955,0,0,0-.6-1.1c-.5-.2-1-.5-1.5-.7-.4-.2-.7-.3-1.1-.5h-9.7a.56.56,0,0,1-.6-.5.367.367,0,0,1,.1-.3c.5-.7.9-1.5,1.4-2.2a9.131,9.131,0,0,0,.8-1.3c0-.1.1-.2.1-.3a1.649,1.649,0,0,1,1.1-1.2,4.707,4.707,0,0,1,1.6-.4,19.218,19.218,0,0,1,2.4,0,3.751,3.751,0,0,1,1,.1,1.581,1.581,0,0,1,1.3,1.5,2.035,2.035,0,0,0,.6,1.5,2.177,2.177,0,0,0,.8.5,9.143,9.143,0,0,1,1.4.7c.7.3,1.4.7,2.2,1.1a2.041,2.041,0,0,1,1.2,1.5v10h.6V379.8c0-.1,0-.1.2-.1s.4.1.6.1a.1.1,0,0,1,.1.1,1.4,1.4,0,0,0,.3,1.5,2.189,2.189,0,0,0,1.4.8,2.619,2.619,0,0,0,2.1-.4,1.351,1.351,0,0,0,.7-1.6,2.319,2.319,0,0,1,.4-1.8.781.781,0,0,1,.4-.4,5.2,5.2,0,0,0,1.8-2.1,4.128,4.128,0,0,0,.4-2.2A3.72,3.72,0,0,0,694.4,371.5Zm-19.3,13.4h.6c.1,0,.2,0,.2.1a1.23,1.23,0,0,0,.7,1.1,1.884,1.884,0,0,0,.8.2h1.4c.2,0,.4.1.4.3s-.1.4-.3.4h-2.1a1.834,1.834,0,0,1-1.8-1.5,1.269,1.269,0,0,1,.1-.6Zm18.8-8.7a4.63,4.63,0,0,1-1.6,1.5.1.1,0,0,0-.1.1,4.714,4.714,0,0,0-.6,1.5v.6a1.027,1.027,0,0,1-.5,1.3,1.613,1.613,0,0,1-.9.3,1.736,1.736,0,0,1-1.4-.3,1.1,1.1,0,0,1-.6-1,1.486,1.486,0,0,1,.2-.9c0-.1,0-.1-.1-.2a4.012,4.012,0,0,0-1.5-.3.6.6,0,0,0-.4.1c-.2.1-.2.2-.2.4v.4h-.1l-.3-.3a.52.52,0,0,0-.4-.2c-.5-.3-1.1-.5-1.6-.8-.7-.4-1.5-.7-2.2-1.1a1.611,1.611,0,0,1-1-1.4,1.5,1.5,0,0,0-.4-1.1,2.263,2.263,0,0,0-1.5-1h-2.9a5.231,5.231,0,0,0-1.8.3c-.1,0-.1,0-.1-.1v-1.2a2.106,2.106,0,0,1-.5-1.3,1.951,1.951,0,0,1,.1-1.3,5.675,5.675,0,0,1,2-2.9,1.668,1.668,0,0,1,2.2.2.908.908,0,0,1,.3.7v.9a2.665,2.665,0,0,0,.9,2,2.271,2.271,0,0,0,1.6.6h3.3a2.577,2.577,0,0,1,2.4,1.9v.1c-.1.2.1.5.4.5h.3a.858.858,0,0,0,.6-.7,4.064,4.064,0,0,1,1.6-2.3,2.7,2.7,0,0,1,1.5-.5h.3a6.15,6.15,0,0,1,1.3.1,2.6,2.6,0,0,1,1.6.9,2.732,2.732,0,0,1,.8,1.9v.4a4.1,4.1,0,0,1-.7,2.2Z" transform="translate(-669.7 -366.625)" fill="#7a8a9e" stroke="#7a8a9e" stroke-width="0.417"/>
        <path id="Path_2371" d="M689.2,375.2c0-.2-.1-.3-.1-.5a1.314,1.314,0,0,1,.3-1.2,2.114,2.114,0,0,1,1.7-.6,1.831,1.831,0,0,1,1.7,1.3,2.777,2.777,0,0,1-.4,2.2l-.6.6a1.6,1.6,0,0,0-.7.9c0,.1-.1.2-.2.3a.663.663,0,0,1-.7.2c-.1,0-.1-.1-.2-.2,0-.1-.1-.1-.1-.2s-.1-.1-.1-.2c-.1-.2-.1-.2-.4-.2a4.1,4.1,0,0,1-1.1-.1c-.3-.1-.5-.5-.3-.7a.215.215,0,0,1,.2-.2.6.6,0,0,1,.4-.1c.1,0,.2-.1.1-.2s-.1-.2-.2-.3a.638.638,0,0,1,0-.6.44.44,0,0,1,.5-.1A.31.31,0,0,1,689.2,375.2Zm3.3-.3v-.4a1.193,1.193,0,0,0-.5-.9,2.016,2.016,0,0,0-1.1-.3,1.445,1.445,0,0,0-.7.2.9.9,0,0,0-.6.6c-.1.2,0,.4,0,.5a1.088,1.088,0,0,1,.1.5.43.43,0,0,1-.4.4h-.1c-.1,0-.1,0-.2-.1h-.1v.1c.1.1.1.2.2.2a.6.6,0,0,1,.1.4c0,.1-.1.1-.1.2a.1.1,0,0,1-.1.1.6.6,0,0,1-.4.1.1.1,0,0,0-.1.1c0,.1,0,.1.1.2.1,0,.1.1.2.1a1.1,1.1,0,0,0,.8,0,.779.779,0,0,1,.7.3c.1.1.1.3.2.4a.1.1,0,1,0,.2,0c0-.1.1-.2.1-.3.1-.2.2-.5.4-.6a2.093,2.093,0,0,1,.6-.4,1.613,1.613,0,0,0,.7-1.4Z" transform="translate(-669.7 -366.625)" fill="#7a8a9e" stroke="#7a8a9e" stroke-width="0.417"/>
      </g>
    </g>
    <g id="ent-2">
      <path id="Path_3111" d="M39.379,15.492a11.569,11.569,0,0,0-.76-3.22,14.789,14.789,0,0,0-1.52-2.9,17.167,17.167,0,0,0-4.342-4.508,15.217,15.217,0,0,0-2.823-1.718,22.163,22.163,0,0,0-2.823-1.181c-.977-.322-2.063-.537-3.04-.751-.543-.107-1.086-.107-1.628-.215h-2.5c-.109,0-.217.107-.326.107a6.386,6.386,0,0,0-2.063.322c-.326.107-.76.107-1.086.215-.217,0-.434.107-.651.107l-.977.322a14.269,14.269,0,0,0-2.931,1.288A25.284,25.284,0,0,0,9.091,5.186a14.192,14.192,0,0,0-3.04,3.22,10.4,10.4,0,0,0-1.194,2.469,17,17,0,0,0-.543,2.254,14.946,14.946,0,0,0-.109,3.113,21.274,21.274,0,0,0,.434,2.576v.215C3.772,20.215,2.9,21.5,1.926,22.684a1.338,1.338,0,0,0-.217,1.4c.109.215.109.322.326.429a2.155,2.155,0,0,0,1.52.644H4.749c.109,0,.217,0,.109.107,0,.215-.109.537-.109.751a1.476,1.476,0,0,0,.868,1.825c.217.107.217.107.217.322A1.734,1.734,0,0,0,6.7,29.876,1.521,1.521,0,0,0,7.9,30.09c.217,0,.217,0,.217.215v.644c0,.107,0,.107-.109.215a1.732,1.732,0,0,0-.543,1.825,2.556,2.556,0,0,0,.76,1.4,1.755,1.755,0,0,0,.76.429,8.351,8.351,0,0,0,2.28.322,6.258,6.258,0,0,0,1.411-.107c.217,0,.434-.107.651-.107a4.663,4.663,0,0,0,1.194-.215,2.578,2.578,0,0,0,.868-.215v4.4c0,.107,0,.107.217.107H31.345c.868,0,.217-1.61.217-2.469-.217-1.073-.326-2.04-.543-3.113l-.326-2.254c-.109-.429-.109-.859-.217-1.288,0-.107,0-.215.109-.215a6.592,6.592,0,0,0,1.086-.751A20.99,20.99,0,0,0,34.6,26.655a16.461,16.461,0,0,0,2.823-3.328,22.625,22.625,0,0,0,1.194-2.254,12.566,12.566,0,0,0,.868-3.328.392.392,0,0,1,.109-.322v-1.61C39.379,15.814,39.379,15.6,39.379,15.492Zm-.76,2.362a17.308,17.308,0,0,1-.76,3.22,11.868,11.868,0,0,1-1.846,3.22,18.445,18.445,0,0,1-1.954,2.147l-.651.644a4.818,4.818,0,0,1-1.194.859c-.326.215-.543.429-.868.644l-1.628.966c-.109,0-.109.107-.109.215a8.2,8.2,0,0,1,.217,1.61c.109.644.217,1.181.326,1.825a8.332,8.332,0,0,1,.217,1.5c.109.644.217,1.4.326,2.04.109.429.109.966.217,1.4v.215c0,.107,0,.107-.109.107H26.786c-.109,0-.326.107-.434.107a.988.988,0,0,1-.543-.107H19.73a1.192,1.192,0,0,1-.543.107,1.391,1.391,0,0,1-.651-.107h-2.5c-.109,0-.217,0-.217-.107V35.994h0v-2.04a.566.566,0,0,1-.434-.215c-.434.107-.977.322-1.411.429a10.812,10.812,0,0,1-1.846.215H10.285a4.664,4.664,0,0,1-1.194-.215,1.5,1.5,0,0,1-.434-.322,1.715,1.715,0,0,1-.543-1.181,1.969,1.969,0,0,1,.543-1.288c.109,0,.109-.107.109-.215V29.446c0-.107,0-.107-.217-.107-.326,0-.651.107-.977.107a1.2,1.2,0,0,1-1.194-.859v-.215a1.973,1.973,0,0,1,.217-.751c0-.107,0-.107-.109-.107s-.217-.107-.434-.107a.963.963,0,0,1-.868-1.073c0-.322.109-.644.109-.966V25.26c0-.215-.326-.429-.434-.644H4.423a1.391,1.391,0,0,1-.651-.107,2.142,2.142,0,0,1-.76-.107c-.109,0-.109-.107-.217-.107a.913.913,0,0,1-.326-1.288h0A20.664,20.664,0,0,1,3.88,21.181,23.614,23.614,0,0,1,5.4,19.249a.64.64,0,0,0,.109-.429,15.244,15.244,0,0,1-.434-2.362,13.535,13.535,0,0,1-.109-2.147A11.013,11.013,0,0,1,6.92,8.3a17.723,17.723,0,0,1,3.148-3.22A18.648,18.648,0,0,1,14.41,2.718a17.457,17.457,0,0,1,4.234-1.073,15.021,15.021,0,0,1,3.8-.107,20.371,20.371,0,0,1,3.691.644,15.671,15.671,0,0,1,3.691,1.5c.543.322,1.194.644,1.737.966A13.71,13.71,0,0,1,34.277,6.9,11.53,11.53,0,0,1,35.8,8.621a16.9,16.9,0,0,1,2.171,3.864,11.219,11.219,0,0,1,.651,2.576,11.96,11.96,0,0,1,0,2.791Z" transform="translate(-1.596 -1)" fill="#7a8a9e" stroke="#7a8a9e" stroke-width="0.424"/>
    </g>
  </g>
</svg>
