<svg id="skedoc_logo_final" xmlns="http://www.w3.org/2000/svg" width="130" height="40" viewBox="0 0 130 40">
  <g id="Group_3068" data-name="Group 3068">
    <path id="Path_2542" data-name="Path 2542" d="M1141.36,373.2c-1.623-.01-3.247-.006-4.872-.006a1.426,1.426,0,0,1-1.472-.937c-.017-.043-.064-.074-.095-.114v-8.256c.186-.255.248-.6.548-.771a1.738,1.738,0,0,1,.906-.275c3.037.008,6.075.022,9.111-.011.767-.008,1.535.05,2.307-.032a7.782,7.782,0,0,0,1.008-.026c.088-.021.2,0,.223.087Z" transform="translate(-1134.921 -350.88)" fill="#00529f"/>
    <path id="Path_2543" data-name="Path 2543" d="M1171.274,335.46a5.286,5.286,0,1,1,3.748-1.549A5.287,5.287,0,0,1,1171.274,335.46Z" transform="translate(-1156.089 -324.886)" fill="#00529f"/>
    <path id="Path_2559" data-name="Path 2559" d="M1150.577,380.822a9.773,9.773,0,0,0-.476,5.023,5.7,5.7,0,0,0,2.945,3.609,12.722,12.722,0,0,0,5.5,1.429,18.4,18.4,0,0,0,2.778-.061c.846-.086,1.69-.172,2.534-.305.387-.054.725-.1,1.05-.156a2.018,2.018,0,1,0-.309-1.2,29.923,29.923,0,0,1-3.02.458,18.556,18.556,0,0,1-3.775-.248,8.857,8.857,0,0,1-4.366-1.487,4.559,4.559,0,0,1-1.632-4.434,8.606,8.606,0,0,1,1.661-4.068c.843-1.107.984-1.512,1.6-2.262.134.137.08.277.08.4V381.8a1.462,1.462,0,0,0,.961,1.467,2.656,2.656,0,0,0,.793.114c2.3.009,4.611.016,6.916,0a1.548,1.548,0,0,0,1.754-1.773c-.007-2.616.007-5.232-.007-7.848,0-.318.066-.417.4-.414,2.53.013,5.057-.016,7.587.02a1.875,1.875,0,0,0,1.977-.989v-8.4c-.07-.114-.15-.223-.216-.334a1.22,1.22,0,0,0-1.1-.634h-9.195C1165.012,363.011,1156.01,367.6,1150.577,380.822Zm16.03,7.5a.96.96,0,1,1-.961.961.96.96,0,0,1,.961-.961Z" transform="translate(-1145.17 -351.3)" fill="#f16823"/>
  </g>
  <g id="Group_3069" data-name="Group 3069" transform="translate(34.07 5.058)">
    <path id="Path_2998" data-name="Path 2998" d="M49.777-43.428h2.809v-3.214l3.446-3.823,4.488,7.037h3.331L57.915-52.55,63.186-58.2H59.623l-6.284,7.182a2.86,2.86,0,0,0-.7,1.042H52.5q.087-.666.087-2.9V-63.7H49.777Z" transform="translate(-35.962 64.019)" fill="#00529f"/>
    <path id="Path_2999" data-name="Path 2999" d="M2.366-33.418a12.1,12.1,0,0,0,5.821,1.449,7.8,7.8,0,0,0,4.488-1.187,4.056,4.056,0,0,0,1.74-3.593,3.6,3.6,0,0,0-1.2-3.04,8.542,8.542,0,0,0-3.721-1.361L9.2-41.209q-.927-.145-1.39-.229-2.346-.492-2.346-1.8,0-1.738,3.359-1.738a8.7,8.7,0,0,1,4.084,1.013l1.042-2.2a11.98,11.98,0,0,0-5.273-1.161A8.192,8.192,0,0,0,4.393-46.29a3.5,3.5,0,0,0-1.709,3.226,3.37,3.37,0,0,0,1.333,3,10.214,10.214,0,0,0,3.91,1.373l.985.189q.229.043.826.174a2.762,2.762,0,0,1,.8.261q.2.13.535.361a1.091,1.091,0,0,1,.435.522,2.113,2.113,0,0,1,.1.7,1.741,1.741,0,0,1-.985,1.651,5.222,5.222,0,0,1-2.462.522,8.682,8.682,0,0,1-4.778-1.333Z" transform="translate(-2.366 52.533)" fill="#00529f"/>
    <path id="Path_3000" data-name="Path 3000" d="M112.037-39.124a8.4,8.4,0,0,0-2.2-5.834,7.187,7.187,0,0,0-5.532-2.36,7.818,7.818,0,0,0-5.662,2.2,7.309,7.309,0,0,0-2.273,5.473,7.251,7.251,0,0,0,2.316,5.532,8.1,8.1,0,0,0,5.763,2.173,8.277,8.277,0,0,0,4.084-1.029,7.913,7.913,0,0,0,2.983-2.91l-2.259-1.3a5.418,5.418,0,0,1-4.749,2.722,5.491,5.491,0,0,1-3.62-1.3,4.526,4.526,0,0,1-1.679-3.359Zm-12.658-2.11a4.622,4.622,0,0,1,1.781-2.631,5.273,5.273,0,0,1,3.2-.985,5,5,0,0,1,3.027.985,4.36,4.36,0,0,1,1.723,2.631Z" transform="translate(-69.001 52.852)" fill="#00529f"/>
    <path id="Path_3001" data-name="Path 3001" d="M-152.831-63.7v5.589a10.3,10.3,0,0,0,.114,2.375h-.145a5.288,5.288,0,0,0-2.229-2.027,6.959,6.959,0,0,0-3.157-.724,7.408,7.408,0,0,0-5.49,2.173,7.483,7.483,0,0,0-2.157,5.5,7.457,7.457,0,0,0,2.173,5.5,7.457,7.457,0,0,0,5.5,2.173,6.282,6.282,0,0,0,5.328-2.549h.145a12.357,12.357,0,0,0-.114,1.42v.84h2.809V-63.7Zm-10.194,12.888a4.961,4.961,0,0,1,1.433-3.66,4.961,4.961,0,0,1,3.66-1.433,4.875,4.875,0,0,1,3.605,1.477,4.947,4.947,0,0,1,1.463,3.62,4.957,4.957,0,0,1-1.477,3.649,4.919,4.919,0,0,1-3.62,1.477,4.9,4.9,0,0,1-3.634-1.448,5.01,5.01,0,0,1-1.431-3.681Z" transform="translate(211.955 63.7)" fill="#f16823"/>
    <path id="Path_3002" data-name="Path 3002" d="M-105.014-39.645a7.229,7.229,0,0,0,2.316,5.49,7.96,7.96,0,0,0,5.677,2.186,7.96,7.96,0,0,0,5.676-2.187,7.229,7.229,0,0,0,2.316-5.49,7.229,7.229,0,0,0-2.316-5.49,7.96,7.96,0,0,0-5.676-2.187,7.96,7.96,0,0,0-5.676,2.187,7.229,7.229,0,0,0-2.317,5.492Zm2.9,0a4.935,4.935,0,0,1,1.448-3.66,4.973,4.973,0,0,1,3.649-1.433,4.973,4.973,0,0,1,3.649,1.433,4.935,4.935,0,0,1,1.448,3.66,5.01,5.01,0,0,1-1.434,3.673,4.934,4.934,0,0,1-3.66,1.448,4.935,4.935,0,0,1-3.66-1.448A5.01,5.01,0,0,1-102.117-39.645Z" transform="translate(168.859 52.533)" fill="#f16823"/>
    <path id="Path_3003" data-name="Path 3003" d="M-34.478-36.316a5.067,5.067,0,0,1-3.968,1.766,4.924,4.924,0,0,1-3.634-1.433,4.961,4.961,0,0,1-1.433-3.66,4.939,4.939,0,0,1,1.42-3.649,4.939,4.939,0,0,1,3.649-1.42A4.946,4.946,0,0,1-34.5-43.006l2.085-1.679a7.754,7.754,0,0,0-6.024-2.631,7.881,7.881,0,0,0-5.67,2.192,7.263,7.263,0,0,0-2.3,5.473,7.251,7.251,0,0,0,2.3,5.49,7.91,7.91,0,0,0,5.662,2.187,8.058,8.058,0,0,0,6.11-2.694Z" transform="translate(128.268 52.534)" fill="#f16823"/>
  </g>
</svg>
